{
  "title": "Babys.Day.Out.1994.iNTERNAL.DVDRip.XviD-EXViDiNT",
  "uid": 7011851,
  "size": 735892591,
  "categoryP": "video",
  "categoryS": "movies",
  "magnet": "?xt=urn:btih:98be1c4aa01b8fee58059acbb62765d865eed05f&amp;dn=Babys.Day.Out.1994.iNTERNAL.DVDRip.XviD-EXViDiNT&amp;tr=udp%3A%2F%2Ftracker.openbittorrent.com%3A80&amp;tr=udp%3A%2F%2Fopen.demonii.com%3A1337&amp;tr=udp%3A%2F%2Ftracker.coppersurfer.tk%3A6969&amp;tr=udp%3A%2F%2Fexodus.desync.com%3A6969",
  "seeders": 40,
  "leechers": 3,
  "uploader": "TvTeam",
  "files": 4,
  "time": 1328495974,
  "description": ". \n &lt;a href=&quot;\nhttp://www.torrenting.com&quot; rel=&quot;nofollow&quot; target=&quot;_NEW&quot;&gt;\nhttp://www.torrenting.com&lt;/a&gt;          :     Once &amp; For all ;)\n\n\n               www . Torrenting . Com \n\n(((((((((((((= Enjoy No RAR releases =))))))))))))))))))))\n\n\n...................................NFO:....................................\n\n.                                                                                                     \n       \n     \n     \n       \n       \n     \n     \n                                         \n                                         \n                EXVID                    \n                                         \n         \n                                         \n         Filled the Archives             \n                                         \n         \n                                         \n                With:                    \n                                         \n         \n                                         \n                                    \n     E240                           \n                                    \n     SP               (C) 2009      \n                                         \n     \n     \n     \n                                                                                  \n                                                                                   \n              Babys.Day.Out.1994.iNTERNAL.DVDRip.XviD-EXViDiNT                      \n                                                                                   \n                                                                                  \n     \n                                                                                               \nEXViD aims to iNTERNAL those releases which have been lost in the archives.\nEXViD aims to PRE non-internal releases which have poor sources and are likely skipped by others. &lt;a href=&quot;\nhttp://www.imdb.com/title/tt0109190/&quot; rel=&quot;nofollow&quot; target=&quot;_NEW&quot;&gt;\nhttp://www.imdb.com/title/tt0109190/&lt;/a&gt;\nSubtitles: NL, EN, FR, DE, IT, ES\nDate: 2012.01\n\nDirector: Patrick Read Johnson\n\nGenres: Adventure | Comedy | Crime | Drama | Family\n\nPlot:\nBaby Bink couldn't ask for more; he has adoring (if somewhat sickly-sweet) parents, he lives in a\nhuge mansion, and he's just about to appear in the social pages of the paper. Unfortunately, not\neveryone in the world is as nice as Baby Bink's parents; especially the three enterprising\nkidnapers who pretend to be photographers from the newspaper. Successfully kidnaping Baby Bink,\nthey have a harder time keeping hold of the rascal, who not only keeps one step ahead of them,\nbut seems to be more than a little bit smarter than the three bumbling criminals.\n\nCast:\nJoe Mantegna\t...\tEddie\nLara Flynn Boyle\t...\tLaraine Cotwell\nJoe Pantoliano\t...\tNorby\nBrian Haley\t...\tVeeko\nCynthia Nixon\t...\tGilbertine\nFred Dalton Thompson\t...\tFBI Agent Dale Grissom\nJohn Neville\t...\tMr. Andrews\nMatthew Glave\t...\tBennington Cotwell\nAdam Robert Worton\t...\tBaby Bink #1\nJacob Joseph Worton\t...\tBaby Bink #2\nBrigid Duffy\t...\tSally\nGuy Hadley\t...\tFBI Agent\nEddie Bracken\t...\tOld Timer\nKenneth L. Jordahl\t...\tOld Soldier #1\nRaymond Henders\t...\tOld Soldier #2\n\nStats:\nFormat                                   : AVI\nFormat/Info                              : Audio Video Interleave\nFile size                                : 702 MiB\nDuration                                 : 1h 34mn\nOverall bit rate mode                    : Variable\nOverall bit rate                         : 1 035 Kbps\n\nVideo\nID                                       : 0\nFormat                                   : MPEG-4 Visual\nFormat profile                           : Advanced Simple@L5\nFormat settings, BVOP                    : 2\nFormat settings, QPel                    : No\nFormat settings, GMC                     : No warppoints\nFormat settings, Matrix                  : Default (H.263)\nCodec ID                                 : XVID\nCodec ID/Hint                            : XviD\nDuration                                 : 1h 34mn\nBit rate                                 : 889 Kbps\nWidth                                    : 624 pixels\nHeight                                   : 336 pixels\nDisplay aspect ratio                     : 1.857\nFrame rate                               : 25.000 fps\nColor space                              : YUV\nChroma subsampling                       : 4:2:0\nBit depth                                : 8 bits\nScan type                                : Progressive\nCompression mode                         : Lossy\nBits/(Pixel*Frame)                       : 0.170\nStream size                              : 603 MiB (86%)\nWriting library                          : XviD 64\n\nAudio\nID                                       : 1\nFormat                                   : MPEG Audio\nFormat version                           : Version 1\nFormat profile                           : Layer 3\nMode                                     : Joint stereo\nMode extension                           : MS Stereo\nCodec ID                                 : 55\nCodec ID/Hint                            : MP3\nDuration                                 : 1h 34mn\nBit rate mode                            : Variable\nBit rate                                 : 133 Kbps\nChannel(s)                               : 2 channels\nSampling rate                            : 48.0 KHz\nCompression mode                         : Lossy\nStream size                              : 90.4 MiB (13%)\nAlignment                                : Aligned on interleaves\nInterleave, duration                     : 24 ms (0.60 video frame)\nInterleave, preload duration             : 121 ms\nWriting library                          : LAME3.98.4\n\n\n\nRelease notes:\nEnjoy!\n\nLooking for:\n75TB+ Archives\nDUTCH/FLEMiSH Archives\n                                                                                                    \nGreets: CRBS EPiSODE FiCO FLS iLS KLASSiGER LiPSYNC MADE NODLABS RUNNER SPRiNTER      \n   \n\n                                                                    ASCII DONE BY XX^NFO 2oo9",
  "parsed": {
    "xt": "urn:btih:98be1c4aa01b8fee58059acbb62765d865eed05f",
    "dn": "Babys.Day.Out.1994.iNTERNAL.DVDRip.XviD-EXViDiNT",
    "tr": [
      "udp://exodus.desync.com:6969",
      "udp://open.demonii.com:1337",
      "udp://tracker.coppersurfer.tk:6969",
      "udp://tracker.openbittorrent.com:80"
    ],
    "infoHash": "98be1c4aa01b8fee58059acbb62765d865eed05f",
    "infoHashBuffer": {
      "type": "Buffer",
      "data": [
        152,
        190,
        28,
        74,
        160,
        27,
        143,
        238,
        88,
        5,
        154,
        203,
        182,
        39,
        101,
        216,
        101,
        238,
        208,
        95
      ]
    },
    "name": "Babys.Day.Out.1994.iNTERNAL.DVDRip.XviD-EXViDiNT",
    "announce": [
      "udp://exodus.desync.com:6969",
      "udp://open.demonii.com:1337",
      "udp://tracker.coppersurfer.tk:6969",
      "udp://tracker.openbittorrent.com:80"
    ],
    "urlList": []
  },
  "previous": 43,
  "peers": 13,
  "last_updated": "2016-12-25T08:41:16.721Z"
}